<svg xmlns="http://www.w3.org/2000/svg" viewBox="0 0 24 24" fill="currentColor">
  <path d="M8.691 2.188C3.891 2.188 0 5.476 0 9.53c0 2.212 1.17 4.203 3.002 5.55a.59.59 0 01.213.665l-.39 1.48c-.019.07-.048.141-.048.213 0 .163.13.295.29.295a.32.32 0 00.186-.067l2.105-1.245a.92.92 0 01.46-.118c.084 0 .169.015.253.034a10.673 10.673 0 002.62.33c.448 0 .886-.04 1.315-.103-.5-1.682-.77-3.521-.77-5.466 0-4.978 4.422-9.005 9.874-9.005.16 0 .32.005.48.013C18.13 4.113 13.883 2.188 8.691 2.188zm11.2 4.051a.82.82 0 00-.82.823c0 .454.367.822.82.822.454 0 .822-.368.822-.822a.822.822 0 00-.821-.823zm-4.383.003a.82.82 0 00-.82.823c0 .454.368.822.82.822.455 0 .823-.368.823-.822a.822.822 0 00-.823-.823zM24 14.92c0-3.398-3.246-6.147-7.245-6.147-4 0-7.244 2.75-7.244 6.147 0 3.397 3.245 6.145 7.244 6.145.847 0 1.662-.142 2.42-.403a.93.93 0 01.326-.06c.153 0 .306.043.44.119l1.56.945a.307.307 0 00.179.06c.163 0 .295-.132.295-.295 0-.054-.02-.108-.035-.161l-.306-1.137a.598.598 0 01.212-.67C23.002 18.733 24 16.89 24 14.92zm-9.683-1.023a.688.688 0 00-.686.686c0 .379.307.686.686.686a.688.688 0 00.687-.686.688.688 0 00-.687-.686zm4.882 0a.688.688 0 00-.686.686c0 .379.307.686.686.686a.688.688 0 00.686-.686.688.688 0 00-.686-.686z"/>
</svg>
