<svg xmlns="http://www.w3.org/2000/svg" viewBox="0 0 24 24" fill="currentColor">
  <path d="M10.098 20c-3.988 0-7.598-1.95-7.598-5.2 0-1.5.56-3.23 1.52-4.9.96-1.67 2.322-3.2 3.968-4.06 1.647-.86 3.395-1.17 4.78-.77 1.384.4 2.32 1.42 2.606 2.82.193-.13.366-.27.516-.41.15-.14.28-.29.386-.45.106-.16.193-.33.26-.51.066-.18.11-.37.13-.57.02-.2.006-.4-.04-.6-.046-.2-.126-.39-.24-.57-.113-.18-.26-.35-.433-.51-.173-.16-.38-.3-.62-.42-.24-.12-.513-.21-.82-.27-.306-.06-.646-.08-1.02-.06-.373.02-.78.08-1.22.18-.44.1-.913.25-1.42.44-1.493.56-2.87 1.35-4.126 2.36-1.256 1.01-2.346 2.16-3.27 3.45-.926 1.29-1.686 2.67-2.28 4.14-.593 1.47-1 2.96-1.22 4.46-.107.75-.143 1.47-.11 2.17.033.7.14 1.36.32 1.97.18.61.426 1.17.74 1.68.313.51.693.95 1.14 1.32.446.37.946.67 1.5.89.553.22 1.16.37 1.82.45.66.08 1.35.09 2.07.03.72-.06 1.47-.19 2.25-.38 1.45-.35 2.8-.86 4.04-1.54 1.24-.68 2.33-1.46 3.27-2.34.94-.88 1.71-1.82 2.31-2.84.6-1.02 1.03-2.08 1.3-3.2.16-.63.22-1.24.19-1.84-.03-.6-.16-1.16-.38-1.69-.22-.53-.54-1.01-.95-1.44-.41-.43-.91-.79-1.5-1.08.21.73.28 1.45.21 2.16-.07.71-.26 1.39-.57 2.04-.31.65-.72 1.26-1.23 1.83-.51.57-1.09 1.09-1.73 1.57-.64.48-1.33.9-2.05 1.26-.72.36-1.46.66-2.2.89-.74.23-1.48.39-2.21.47-.73.08-1.43.08-2.1 0-.67-.08-1.29-.24-1.86-.47-.57-.23-1.08-.54-1.53-.92-.45-.38-.82-.83-1.11-1.35-.29-.52-.48-1.1-.57-1.74-.09-.64-.08-1.34.03-2.08.11-.74.32-1.51.63-2.32.31-.81.72-1.62 1.23-2.44.51-.82 1.12-1.61 1.83-2.38.71-.77 1.5-1.46 2.36-2.08.86-.62 1.8-1.15 2.81-1.59 1.01-.44 2.08-.76 3.2-.96 1.12-.2 2.27-.26 3.45-.18 1.18.08 2.33.32 3.45.72 1.12.4 2.15.98 3.09 1.73.94.75 1.68 1.71 2.23 2.87.55 1.16.83 2.54.83 4.13 0 1.4-.22 2.77-.67 4.08-.45 1.31-1.09 2.56-1.93 3.75-.84 1.19-1.86 2.27-3.05 3.24-1.19.97-2.53 1.78-4.01 2.44-1.48.66-3.06 1.12-4.73 1.38-.83.13-1.64.19-2.42.19z"/>
  <path d="M15.88 11.63c.17.31.25.65.24 1.02-.01.37-.11.72-.29 1.04-.18.32-.43.6-.75.82-.32.22-.68.38-1.09.47-.41.09-.83.1-1.26.04-.43-.06-.84-.2-1.22-.4-.38-.2-.72-.47-1.01-.8-.29-.33-.51-.71-.66-1.13-.15-.42-.2-.86-.15-1.33.05-.47.2-.9.45-1.3.25-.4.59-.73 1.02-.99.43-.26.93-.42 1.5-.49.57-.07 1.16-.02 1.75.15.59.17 1.12.44 1.57.81.45.37.78.84.9 1.09zm-3.71 3.58c.43.15.86.19 1.29.12.43-.07.82-.24 1.17-.51.35-.27.62-.62.81-1.05.19-.43.25-.92.18-1.47-.07-.55-.28-1.03-.63-1.44-.35-.41-.83-.7-1.45-.87-.62-.17-1.27-.18-1.94-.03-.67.15-1.27.49-1.81 1.01-.54.52-.87 1.21-.99 2.07-.12.86.09 1.6.63 2.23.54.63 1.31 1.03 2.31 1.2.1.02.2.03.3.03.05 0 .09-.01.13-.03.04-.02.07-.04.09-.07.02-.03.03-.06.03-.1 0-.04-.01-.08-.02-.11-.01-.03-.03-.06-.06-.08-.03-.02-.06-.04-.1-.05-.04-.01-.08-.01-.12 0-.05 0-.1-.01-.15-.03-.05-.02-.1-.05-.14-.09-.04-.04-.07-.09-.09-.15-.02-.06-.02-.13 0-.2.02-.07.06-.13.12-.18.06-.05.13-.08.22-.09.09-.01.18 0 .27.03.09.03.16.09.21.17.05.08.07.19.05.32z"/>
  <path d="M20.12 9.37c-.05-.11-.11-.2-.17-.27-.06-.07-.13-.13-.2-.17-.07-.04-.15-.07-.22-.09-.07-.02-.15-.03-.22-.03-.07 0-.14.01-.21.03-.07.02-.13.05-.19.09-.06.04-.11.09-.16.15-.05.06-.09.13-.12.21-.03.08-.05.17-.05.26 0 .09.02.18.05.26.03.08.07.15.12.21.05.06.1.11.16.15.06.04.12.07.19.09.07.02.14.03.21.03.07 0 .15-.01.22-.03.07-.02.15-.05.22-.09.07-.04.14-.1.2-.17.06-.07.12-.16.17-.27.05-.11.07-.22.07-.33 0-.11-.02-.22-.07-.33zm1.53-2.17c-.02-.09-.05-.17-.08-.25-.03-.08-.07-.15-.11-.21-.04-.06-.09-.12-.14-.17-.05-.05-.11-.1-.17-.14-.06-.04-.13-.08-.2-.11-.07-.03-.15-.06-.23-.08-.08-.02-.16-.04-.25-.05-.09-.01-.18-.02-.27-.02-.09 0-.18.01-.27.02-.09.01-.17.03-.25.05-.08.02-.16.05-.23.08-.07.03-.14.07-.2.11-.06.04-.12.09-.17.14-.05.05-.1.11-.14.17-.04.06-.08.13-.11.21-.03.08-.06.16-.08.25-.02.09-.03.18-.03.27 0 .09.01.18.03.27.02.09.05.17.08.25.03.08.07.15.11.21.04.06.09.12.14.17.05.05.11.1.17.14.06.04.13.08.2.11.07.03.15.06.23.08.08.02.16.04.25.05.09.01.18.02.27.02.09 0 .18-.01.27-.02.09-.01.17-.03.25-.05.08-.02.16-.05.23-.08.07-.03.14-.07.2-.11.06-.04.12-.09.17-.14.05-.05.1-.11.14-.17.04-.06.08-.13.11-.21.03-.08.06-.16.08-.25.02-.09.03-.18.03-.27 0-.09-.01-.18-.03-.27zm-1.53.9c.02.04.03.09.03.14 0 .05-.01.1-.03.14-.02.04-.05.08-.09.11-.04.03-.08.06-.13.08-.05.02-.1.03-.16.03-.06 0-.11-.01-.16-.03-.05.02-.09.05-.13.08-.04.03-.07.07-.09.11-.02.04-.03.09-.03.14 0 .05.01.1.03.14.02.04.05.08.09.11.04.03.08.06.13.08.05.02.1.03.16.03.06 0 .11.01.16.03.05.02.09.05.13.08.04.03.07.07.09.11z"/>
</svg>
