<?xml version="1.0" encoding="UTF-8"?>
<svg width="200" height="200" viewBox="0 0 200 200" fill="none" xmlns="http://www.w3.org/2000/svg">
  <!-- 背景 -->
  <rect width="200" height="200" fill="#f0f0f0"/>
  
  <!-- 简化的二维码样式 -->
  <g fill="#333333">
    <!-- 左上角定位图案 -->
    <rect x="20" y="20" width="40" height="40"/>
    <rect x="30" y="30" width="20" height="20" fill="#f0f0f0"/>
    
    <!-- 右上角定位图案 -->
    <rect x="140" y="20" width="40" height="40"/>
    <rect x="150" y="30" width="20" height="20" fill="#f0f0f0"/>
    
    <!-- 左下角定位图案 -->
    <rect x="20" y="140" width="40" height="40"/>
    <rect x="30" y="150" width="20" height="20" fill="#f0f0f0"/>
    
    <!-- 随机小方块模拟二维码数据 -->
    <rect x="80" y="30" width="10" height="10"/>
    <rect x="100" y="30" width="10" height="10"/>
    <rect x="110" y="40" width="10" height="10"/>
    <rect x="80" y="50" width="10" height="10"/>
    <rect x="100" y="60" width="10" height="10"/>
    <rect x="30" y="80" width="10" height="10"/>
    <rect x="50" y="90" width="10" height="10"/>
    <rect x="70" y="80" width="10" height="10"/>
    <rect x="90" y="90" width="10" height="10"/>
    <rect x="110" y="80" width="10" height="10"/>
    <rect x="130" y="90" width="10" height="10"/>
    <rect x="150" y="80" width="10" height="10"/>
    <rect x="40" y="110" width="10" height="10"/>
    <rect x="60" y="120" width="10" height="10"/>
    <rect x="80" y="110" width="10" height="10"/>
    <rect x="100" y="120" width="10" height="10"/>
    <rect x="120" y="110" width="10" height="10"/>
    <rect x="140" y="120" width="10" height="10"/>
    <rect x="160" y="110" width="10" height="10"/>
  </g>
  
  <!-- 中心文本 -->
  <text x="100" y="105" font-family="Arial, sans-serif" font-size="14" text-anchor="middle" fill="#333333">占位二维码</text>
</svg>
